<svg id="Ebene_1" xmlns="http://www.w3.org/2000/svg" viewBox="0 0 288 144">
    <title>Kaninchen Kindermode</title>
    <path d="M280 144H8c-4.42 0-8-3.58-8-8V8c0-4.42 3.58-8 8-8h272c4.42 0 8 3.58 8 8v128c0 4.42-3.58 8-8 8z"
          class="background"
          fill="#64c1cd"/>
    <path d="M279 141H9c-3.31 0-6-2.69-6-6V9c0-3.31 2.69-6 6-6h270c3.31 0 6 2.69 6 6v126c0 3.31-2.69 6-6 6z"
          fill="transparent" stroke="#fff" stroke-width="2" stroke-miterlimit="10" stroke-dasharray="8"/>
    <path fill="#ffffff"
          d="M125.74 42.74c1.62.29 14.74-1.31 18.53-.64 3.79.67 3.92 1.53 3.45 2.56-.46 1.03-6.98.33-10.26 1.26-1.55.44-3.78 1.32-5.98 2.29-1.81.8-2.13 1.02-2 1.88.04.26.43.67 5.6-.13 2.9-.45 9.02-2.61 13.21-2.13 4.67.53 4.73 1.67 8.5 4.01 1.43.89 3.64 1.48 7.29 2.96-.06 2.5-.44 4.67 3.06 6.4 1.35.67 3.37 1.43 6.59.6-.07.39-1.93 3.06-2.77 6.21-.52 1.96-1.05 5.95-.6 6.59.45.64 1.48 3.17 3.41-1.91.5-1.32.78-2.93.95-5.41.1-1.44 1.89-4.97 1.99-5.52.1-.56.06-1.37.11-1.64.05-.27.32-.22 1.46-1.97 1.15-1.75-1.05-3.53-.64-4.3.41-.76 6.38-1.39 6.62-2.74.19-1.08-.6-2.9-2.77-3.28-2.17-.38-2.48-.16-3.84-.4-.7-.12-4.21-2.24-7.42-3.82-2.98-1.47-5.71-2.41-5.67-2.67.05-.26 2.21-.08 4.44-1.45.82-.5 2.09-1.32 2.54-1.78.54-.48-.7-.65.51-1.31 2.74-1.49 12-3.18 13.91-4.52.79-.55 3.09-1.69 3.92-3.22.6-1.1-3.04-1.74-11.71 1.56-2.49.95-7.89 3.63-9.52 3.34-.75-.13.68-.72 6.49-3.6 2.53-1.25 9.52-3.34 10.52-4.28.68-.72-.48-2.04-3.06-1.66-1.55.29-3.87.97-8.29 2.72-2.67 1.06-9.07 3.98-10.2 4.06-1.13.08-3.66.19-7.42.92s-7.06 2.1-7.35 3.73c-.29 1.62 7.19 3.5 7.05 4.31-.1.54-2.03.95-5.79 1.21-4.15-.86-7.04-1.37-8.66-1.53-6.77-.65-10.6-.19-12.29.06-3.43.53-5.54 2.95-3.91 3.24M263.69 102.52c0 .48-.13 1.15-.39 1.99-.26.85-.6 1.76-1.03 2.75-.42.99-.87 2-1.33 3.05-.46 1.05-.9 1.99-1.33 2.84-.42.85-.77 1.54-1.03 2.08s-.39.84-.39.88c0 .24.1.36.3.36s.48-.11.85-.33c.36-.22.67-.33.91-.33.16 0 .26.07.3.21.04.14.06.27.06.39s-.18.34-.54.66c-.36.32-.79.66-1.3 1.03-.5.36-1 .68-1.48.97-.48.28-.85.42-1.09.42-.24 0-.58-.26-1.03-.78-.44-.52-.66-1.11-.66-1.75 0-.48.16-1.16.48-2.02s.71-1.8 1.18-2.81c.46-1.01.97-2.04 1.51-3.11.54-1.07 1.05-2.06 1.51-2.99.46-.92.86-1.73 1.18-2.41.32-.68.48-1.15.48-1.39 0-.56-.28-.85-.85-.85-.68 0-1.5.19-2.45.57-.95.38-1.96.88-3.05 1.51-1.09.62-2.21 1.34-3.38 2.14s-2.32 1.63-3.44 2.48c-1.21.88-2.35 1.76-3.41 2.63-1.07.86-2.02 1.63-2.87 2.29-.85.66-1.52 1.21-2.02 1.63-.5.42-.77.63-.81.63-.08 0-.23-.06-.45-.18s-.46-.27-.72-.45c-.26-.18-.49-.37-.7-.57-.2-.2-.3-.38-.3-.54s.19-.52.57-1.09c.38-.56.88-1.24 1.48-2.02s1.27-1.62 1.99-2.5c.73-.89 1.41-1.7 2.05-2.44.65-.75 1.22-1.36 1.72-1.84s.86-.73 1.06-.73c.32 0 .6.15.85.45.24.3.36.57.36.81 0 .08-.1.28-.3.6-.2.32-.47.74-.81 1.27-.34.52-.73 1.11-1.15 1.75-.42.65-.86 1.29-1.3 1.93 1.09-.89 2.39-1.89 3.9-3.02 1.51-1.13 3.08-2.19 4.71-3.2 1.63-1 3.24-1.85 4.83-2.53 1.59-.68 3.03-1.03 4.32-1.03.68 0 1.36.22 2.02.66.66.44.99 1.09.99 1.93m-27.13-1.2c0-.28-.09-.52-.27-.73-.18-.2-.59-.3-1.24-.3-.36 0-.81.15-1.33.45-.52.3-1.08.7-1.66 1.21-.58.5-1.17 1.1-1.75 1.78-.58.68-1.14 1.41-1.66 2.17.77-.16 1.61-.45 2.54-.88.93-.42 1.78-.88 2.57-1.36.79-.48 1.45-.95 1.99-1.39.54-.43.81-.75.81-.95m8.76 3.26c-.48.56-1.27 1.46-2.35 2.69-1.09 1.23-2.54 2.64-4.35 4.26-.92.8-1.87 1.59-2.84 2.35-.97.77-1.93 1.44-2.9 2.02-.97.58-1.92 1.05-2.87 1.39-.95.34-1.84.51-2.69.51-1.45 0-2.64-.43-3.56-1.3-.93-.86-1.39-2.12-1.39-3.77 0-1.85.46-3.7 1.39-5.55.93-1.85 2.03-3.51 3.32-4.98 1.29-1.47 2.59-2.66 3.9-3.56 1.31-.91 2.37-1.36 3.17-1.36.56 0 1.04.19 1.42.57.38.38.76.69 1.12.94.36.24.81.5 1.33.78s.78.75.78 1.39c0 .72-.44 1.48-1.33 2.26-.89.78-1.94 1.54-3.17 2.26-1.23.73-2.52 1.37-3.87 1.93-1.35.56-2.49.97-3.41 1.21-.44.85-.81 1.69-1.09 2.54-.28.85-.42 1.63-.42 2.35 0 .8.19 1.44.57 1.9.38.46.9.69 1.54.69s1.36-.14 2.14-.42c.78-.28 1.6-.67 2.45-1.18.85-.5 1.7-1.08 2.57-1.72.87-.64 1.72-1.33 2.57-2.05 1.57-1.37 3.03-2.76 4.38-4.16 1.35-1.41 2.36-2.58 3.05-3.5.36 0 .59.17.69.51.11.34.05.67-.15 1m-14.19-30.25c0-.44-.09-.74-.27-.88-.18-.14-.45-.21-.82-.21-.48 0-1.19.31-2.11.94-.93.63-1.97 1.43-3.14 2.42-1.17.99-2.41 2.1-3.72 3.35s-2.58 2.49-3.8 3.71a105.64 105.64 0 0 0-5.83 6.31c-1.69 2.05-3.48 4.27-5.38 6.64-1.89 2.38-3.66 4.75-5.32 7.12.73-.32 1.73-.92 3.02-1.81s2.73-1.96 4.32-3.23c1.59-1.27 3.28-2.67 5.08-4.2 1.79-1.53 3.57-3.12 5.34-4.77 1.69-1.57 3.29-3.13 4.8-4.68 1.51-1.55 2.85-3.01 4.02-4.38 1.17-1.37 2.09-2.6 2.78-3.68s1.03-1.97 1.03-2.65m1.81-1.63c0 1.17-.34 2.48-1.03 3.93-.68 1.45-1.61 2.97-2.78 4.56-1.17 1.59-2.54 3.23-4.11 4.92s-3.24 3.34-5.01 4.95c-1.85 1.69-3.76 3.33-5.74 4.92s-3.88 3.05-5.71 4.38a73.36 73.36 0 0 1-5.2 3.47c-1.63.99-3.03 1.72-4.2 2.2-1.29 1.93-2.42 3.68-3.38 5.25-.97 1.57-1.71 2.88-2.23 3.92l.12.18c.08-.08.39-.4.94-.97.54-.56 1.25-1.27 2.11-2.11.87-.85 1.86-1.77 2.99-2.78 1.13-1.01 2.3-1.97 3.5-2.9 1.69-1.29 3.39-2.39 5.1-3.32 1.71-.93 3.27-1.39 4.68-1.39 1.53 0 2.74.44 3.63 1.33.89.89 1.33 2.23 1.33 4.04 0 .89-.02 1.85-.06 2.9-.04 1.05-.05 2.01-.03 2.9.02.89.11 1.62.27 2.2.16.58.44.87.85.87.32 0 .67-.09 1.03-.27.36-.18.71-.39 1.06-.63.34-.24.66-.48.94-.73.28-.24.48-.42.6-.54.24.16.32.38.24.66-.12.12-.38.39-.78.81-.4.42-.88.86-1.42 1.33-.54.46-1.13.87-1.75 1.24-.63.36-1.22.54-1.78.54-.6 0-1.22-.25-1.84-.76-.62-.5-.94-1.28-.94-2.32 0-.88.02-1.8.06-2.75.04-.95.07-1.85.09-2.72.02-.87.05-1.66.09-2.39.04-.72.06-1.33.06-1.81 0-.56-.16-1.08-.48-1.54-.32-.46-.83-.69-1.51-.69-1.17 0-2.54.47-4.11 1.42-1.57.95-3.2 2.1-4.89 3.47a80.22 80.22 0 0 0-4.05 3.44l-3.65 3.32c-1.11 1.01-2.05 1.84-2.84 2.51-.79.66-1.3 1-1.54 1-.32 0-.59-.1-.82-.3-.22-.2-.33-.52-.33-.97 0-.4.4-1.4 1.21-2.99.81-1.59 1.89-3.53 3.26-5.83 1.37-2.29 2.98-4.85 4.83-7.67 1.85-2.82 3.84-5.64 5.95-8.48s4.31-5.6 6.59-8.3c2.28-2.7 4.52-5.09 6.73-7.18 2.22-2.09 4.34-3.77 6.37-5.04 2.03-1.27 3.88-1.9 5.53-1.9.72 0 1.25.23 1.57.69.32.49.48 1.13.48 1.93m-33.36 31.88c-.68.85-1.61 1.9-2.78 3.17a63.904 63.904 0 0 1-3.87 3.83c-.89.8-1.78 1.59-2.69 2.35-.91.76-1.8 1.43-2.69 1.99-.89.56-1.73 1.02-2.54 1.36-.81.34-1.55.51-2.24.51-1.45 0-2.64-.43-3.56-1.3-.93-.86-1.39-2.12-1.39-3.77 0-1.85.46-3.7 1.39-5.55.92-1.85 2.03-3.51 3.32-4.98 1.29-1.47 2.59-2.66 3.9-3.56 1.31-.91 2.36-1.36 3.17-1.36.32 0 .67.14 1.06.42.38.28.73.62 1.06 1.02.32.4.59.81.81 1.24.22.42.33.75.33 1 0 .8-.24 1.39-.73 1.75-.48.36-.89.54-1.21.54-.12 0-.18-.14-.18-.42 0-.2.04-.44.12-.72.08-.28.12-.54.12-.78v-.73c0-.2-.16-.3-.48-.3-.72 0-1.62.41-2.69 1.24-1.07.83-2.11 1.88-3.14 3.17-1.03 1.29-1.9 2.71-2.63 4.26-.73 1.55-1.09 3.07-1.09 4.56 0 .8.19 1.44.57 1.9.38.46.89.69 1.54.69.52 0 1.14-.16 1.84-.48s1.46-.76 2.27-1.3 1.64-1.17 2.51-1.87 1.72-1.44 2.57-2.2c1.45-1.37 2.8-2.72 4.05-4.04 1.25-1.33 2.15-2.38 2.72-3.14.36 0 .59.17.69.51.12.33.07.66-.13.99m-22.15-2.06c0 .48-.13 1.15-.39 1.99-.26.85-.6 1.76-1.03 2.75-.42.99-.87 2-1.33 3.05-.46 1.05-.91 1.99-1.33 2.84-.42.85-.76 1.54-1.03 2.08-.26.54-.39.84-.39.88 0 .24.1.36.3.36.2 0 .48-.11.85-.33.36-.22.66-.33.91-.33.16 0 .26.07.3.21.04.14.06.27.06.39s-.18.34-.54.66a19.134 19.134 0 0 1-2.78 2c-.48.28-.85.42-1.09.42-.24 0-.58-.26-1.03-.78-.44-.52-.67-1.11-.67-1.75 0-.48.16-1.16.48-2.02.32-.87.71-1.8 1.18-2.81.46-1.01.97-2.04 1.51-3.11.54-1.07 1.05-2.06 1.51-2.99.46-.92.86-1.73 1.18-2.41.32-.68.48-1.15.48-1.39 0-.56-.28-.85-.85-.85-.68 0-1.5.19-2.45.57-.95.38-1.96.88-3.05 1.51-1.09.62-2.21 1.34-3.38 2.14s-2.32 1.63-3.44 2.48a79.66 79.66 0 0 0-3.41 2.63c-1.07.86-2.02 1.63-2.87 2.29-.85.66-1.52 1.21-2.02 1.63-.5.42-.78.63-.82.63-.08 0-.23-.06-.45-.18s-.46-.27-.73-.45c-.26-.18-.49-.37-.69-.57-.2-.2-.3-.38-.3-.54s.19-.52.57-1.09c.38-.56.88-1.24 1.48-2.02s1.27-1.62 1.99-2.5c.72-.89 1.41-1.7 2.05-2.44.64-.75 1.22-1.36 1.72-1.84s.86-.73 1.06-.73c.32 0 .6.15.85.45.24.3.36.57.36.81 0 .08-.1.28-.3.6-.2.32-.47.74-.82 1.27-.34.52-.72 1.11-1.15 1.75-.42.65-.86 1.29-1.3 1.93 1.09-.89 2.39-1.89 3.9-3.02 1.51-1.13 3.08-2.19 4.71-3.2 1.63-1 3.24-1.85 4.83-2.53 1.59-.68 3.03-1.03 4.32-1.03.68 0 1.36.22 2.02.66.69.44 1.02 1.09 1.02 1.93m-22.9 8.09c-.12.12-.37.34-.75.66s-.81.66-1.27 1.03-.94.73-1.42 1.09c-.48.36-.89.64-1.21.85-.68.4-1.52.86-2.51 1.36-.99.5-1.94.75-2.87.75-.6 0-1.13-.16-1.57-.48-.44-.32-.67-.92-.67-1.81 0-.76.2-1.63.6-2.6.4-.97.87-1.88 1.39-2.75.52-.87 1.02-1.61 1.48-2.23.46-.62.73-1 .81-1.12.4-.48.6-.92.6-1.33 0-.2.09-.46.27-.78.18-.32.41-.63.69-.94.28-.3.59-.55.94-.76.34-.2.69-.3 1.06-.3.48 0 .89.13 1.21.39.32.26.48.53.48.81 0 .32-.06.8-.18 1.45-.12.64-.28 1.11-.48 1.39-.12.12-.32.34-.6.66-.28.32-.6.67-.97 1.06-.36.38-.75.78-1.15 1.21-.4.42-.75.81-1.03 1.18-.6.76-1.2 1.57-1.78 2.41-.58.85-.88 1.51-.88 1.99 0 .16.06.33.18.51s.3.27.54.27c.52 0 1.2-.19 2.02-.57.83-.38 1.68-.83 2.57-1.36.8-.52 1.58-1.04 2.33-1.54.74-.5 1.3-.91 1.66-1.24.12 0 .24.06.36.18.15.14.19.32.15.56m1.82-14.97c0 .08-.05.21-.15.39-.1.18-.23.36-.39.54-.16.18-.32.34-.48.48-.16.14-.3.21-.42.21s-.29-.07-.51-.21c-.22-.14-.44-.31-.66-.51-.22-.2-.41-.41-.57-.64-.16-.22-.24-.43-.24-.63 0-.4.19-.86.57-1.36.38-.5.8-.76 1.24-.76.77 0 1.19.2 1.27.6.08.2.16.51.24.94.06.44.1.75.1.95m-36.06-5.37c-3.14 2.17-6.18 4.51-9.12 7-2.94 2.5-5.55 4.86-7.82 7.09-2.28 2.23-4.1 4.2-5.47 5.89-1.37 1.69-2.05 2.82-2.05 3.38 0 .2-.03.31-.09.33-.06.02.01.03.21.03.16 0 .63-.3 1.39-.91.77-.6 1.76-1.45 2.99-2.53 1.23-1.09 2.64-2.36 4.23-3.83 1.59-1.47 3.26-3.09 5.01-4.86 1.75-1.77 3.54-3.63 5.38-5.58s3.6-3.96 5.34-6.01m24.34-4.59c0 1.89-.31 3.83-.94 5.82-.62 1.99-1.39 3.94-2.3 5.86-.91 1.91-1.9 3.73-2.99 5.46-1.09 1.73-2.08 3.27-2.99 4.62-.9 1.35-1.67 2.48-2.3 3.38-.62.9-.94 1.48-.94 1.72 0 .4.3.6.91.6.12 0 .63-.29 1.54-.88.91-.58 1.9-1.24 2.99-1.96s2.12-1.43 3.11-2.11 1.62-1.13 1.9-1.33c.48.08.73.32.73.73-.12.12-.51.46-1.18 1.02-.66.56-1.47 1.23-2.42 1.99-.95.77-1.97 1.58-3.08 2.44-1.11.87-2.18 1.65-3.23 2.35-1.05.7-2 1.3-2.87 1.78-.87.48-1.52.73-1.96.73-.56 0-1.16-.2-1.78-.6-.62-.4-.94-1.03-.94-1.87 0-.85.42-1.96 1.27-3.35.85-1.39 1.89-2.95 3.14-4.68 1.25-1.73 2.61-3.58 4.08-5.56 1.47-1.97 2.83-3.96 4.08-5.98 1.25-2.01 2.3-4.02 3.14-6.01.85-1.99 1.27-3.87 1.27-5.64 0-.68-.19-1.33-.57-1.93-.38-.6-1.04-.9-1.96-.9-1.81 0-3.77.37-5.89 1.12-2.11.74-4.34 1.76-6.67 3.05-1.73 2.58-3.63 5.22-5.71 7.94-2.07 2.72-4.22 5.34-6.43 7.88s-4.43 4.93-6.64 7.18c-2.22 2.25-4.3 4.23-6.25 5.92-1.95 1.69-3.73 3.03-5.34 4.01s-2.9 1.48-3.87 1.48c-.48 0-.92-.15-1.3-.45-.38-.3-.57-.69-.57-1.18 0-1.17.46-2.6 1.39-4.29.92-1.69 2.18-3.52 3.77-5.49s3.45-4.04 5.59-6.19c2.13-2.15 4.42-4.27 6.86-6.34 2.44-2.07 4.95-4.06 7.55-5.95 2.6-1.89 5.17-3.58 7.7-5.07 1.25-1.65 2.41-3.28 3.47-4.89a47.21 47.21 0 0 0 2.75-4.68c.77-1.51 1.36-2.94 1.78-4.29.42-1.35.63-2.61.63-3.77 0-1.53-.65-2.84-1.96-3.93-1.31-1.09-3.49-1.63-6.55-1.63-1.45 0-3.05.21-4.8.64-1.75.42-3.51.97-5.29 1.63-1.77.66-3.48 1.38-5.13 2.14-1.65.76-3.12 1.49-4.41 2.17-1.29.68-2.33 1.28-3.11 1.78-.78.5-1.18.79-1.18.87 0 .2.08.34.24.42.16.08.24.2.24.36 0 .08-.31.35-.94.81-.63.46-1.42 1.01-2.39 1.66-.97.64-2.03 1.34-3.2 2.08-1.17.74-2.29 1.43-3.38 2.05-1.09.63-2.07 1.15-2.96 1.57-.89.42-1.53.63-1.93.63-.28 0-.61-.05-1-.15-.38-.1-.57-.37-.57-.81 0-.32.63-1.01 1.9-2.05 1.27-1.05 2.95-2.27 5.04-3.68 2.09-1.41 4.51-2.9 7.25-4.47 2.74-1.57 5.59-3.01 8.55-4.32 2.96-1.31 5.91-2.39 8.85-3.26 2.94-.87 5.68-1.3 8.21-1.3 3.18 0 5.75.67 7.7 2.02 1.95 1.35 2.93 3.51 2.93 6.49 0 1.53-.47 3.41-1.42 5.64-.95 2.23-2.24 4.68-3.9 7.33 1.69-.76 3.3-1.36 4.83-1.78s2.92-.63 4.17-.63c2.01 0 3.46.56 4.35 1.69.88 1.18 1.33 2.61 1.33 4.34M78.36 99.56c0-.36-.18-.54-.54-.54-.4 0-1.01.28-1.81.84-.81.56-1.71 1.3-2.72 2.2a41.3 41.3 0 0 0-3.08 3.11 55.904 55.904 0 0 0-2.9 3.5c-1.17 1.53-2.07 2.9-2.72 4.1-.65 1.21-.97 2.13-.97 2.78 0 .4.06.6.18.6s.47-.21 1.06-.63c.58-.42 1.27-.95 2.05-1.57.78-.62 1.6-1.31 2.45-2.05.85-.74 1.61-1.42 2.3-2.02.72-.64 1.43-1.29 2.11-1.93.69-.64 1.33-1.23 1.93-1.75a3 3 0 0 1-.72-.3c-.2-.12-.3-.22-.3-.3 0-.08.08-.19.24-.33.16-.14.32-.31.48-.51.08-.08.28-.37.6-.88.32-.5.65-1.05 1-1.63.34-.58.65-1.14.94-1.66.28-.52.42-.87.42-1.03m12.02 5.14c-.08.12-.34.43-.79.94-.44.5-.96 1.07-1.54 1.69s-1.18 1.25-1.78 1.87c-.6.62-1.11 1.12-1.51 1.48-.44.36-.96.8-1.54 1.33-.58.52-1.19 1.03-1.81 1.51-.62.48-1.26.89-1.9 1.24-.65.34-1.21.51-1.69.51-.72 0-1.25-.36-1.57-1.09-.32-.73-.48-1.61-.48-2.66 0-.52.07-1.17.21-1.93.14-.76.25-1.23.33-1.39.04-.12.03-.22-.03-.3-.06-.08-.13-.12-.21-.12-.04 0-.25.16-.63.48-.38.32-.85.71-1.39 1.18-.54.46-1.13.97-1.75 1.51-.63.54-1.2 1.06-1.72 1.54s-1.16 1.06-1.9 1.72c-.75.66-1.48 1.29-2.21 1.87-.73.58-1.39 1.09-1.99 1.51-.6.42-1.05.63-1.33.63-.4 0-.74-.24-1-.73-.26-.48-.39-1.02-.39-1.63 0-1.01.24-2.17.73-3.5s1.12-2.7 1.9-4.1c.79-1.41 1.69-2.79 2.72-4.14 1.03-1.35 2.1-2.56 3.2-3.62 1.11-1.07 2.23-1.93 3.35-2.6 1.13-.66 2.18-1 3.14-1 .81 0 1.48.22 2.02.66.54.44.81 1.13.81 2.05 0 .24-.07.57-.21 1-.14.42-.32.88-.54 1.39-.22.5-.47 1.02-.75 1.54s-.54.99-.79 1.39c.4-.2.7-.3.91-.3.48 0 .88.12 1.18.36.3.24.45.64.45 1.21 0 .36-.08.79-.24 1.3s-.34 1.03-.54 1.57-.38 1.08-.54 1.6c-.16.52-.24.99-.24 1.39 0 .32.05.6.15.85.1.24.31.36.63.36.44 0 1.17-.4 2.18-1.21 1.01-.8 2.07-1.73 3.2-2.78.6-.6 1.21-1.22 1.81-1.84.6-.62 1.17-1.2 1.69-1.72a37.574 37.574 0 0 0 2.12-2.29c.12 0 .25.1.39.3.13.2.1.52-.11.97m-8.27-31.27c0 1.77-.43 3.68-1.3 5.73-.87 2.05-2.08 4.09-3.65 6.13s-3.42 3.98-5.56 5.85a43.22 43.22 0 0 1-6.98 4.98 38.722 38.722 0 0 1-8 3.47c-2.82.87-5.68 1.3-8.58 1.3-.4 0-.78-.02-1.15-.06-.36-.04-.7-.1-1.03-.18.08.68.19 1.55.33 2.6s.33 2.15.57 3.32c.24 1.17.53 2.32.88 3.47.34 1.15.76 2.17 1.24 3.08.48.9 1.03 1.65 1.63 2.23.6.58 1.31.88 2.11.88 1.49 0 2.65-.32 3.47-.97.83-.64 1.44-1.23 1.84-1.75.44-.2.76-.06.97.42-.2.32-.49.73-.88 1.21-.38.48-.85.96-1.39 1.42-.54.46-1.17.87-1.87 1.21-.7.34-1.44.51-2.21.51-1.57 0-2.98-.49-4.23-1.48s-2.33-2.24-3.26-3.77c-.93-1.53-1.7-3.21-2.33-5.04-.62-1.83-1.14-3.59-1.54-5.28-.73.93-1.41 1.82-2.05 2.69-.65.87-1.23 1.63-1.75 2.29a31.7 31.7 0 0 0-1.24 1.66c-.3.44-.45.7-.45.78 0 .2.06.46.18.78s.18.66.18 1.03c0 .12-.18.38-.54.78-.36.4-.81.89-1.36 1.45-.54.56-1.16 1.14-1.84 1.72-.69.58-1.34 1.14-1.96 1.66-.63.52-1.18.95-1.66 1.27-.48.32-.83.48-1.03.48-.56 0-1.07-.24-1.51-.72-.44-.48-.67-.93-.67-1.33 0-.44.18-.77.54-1 .36-.22.73-.55 1.09-1 .08-.08.54-.65 1.39-1.72.85-1.07 1.91-2.45 3.2-4.16 1.29-1.71 2.75-3.65 4.38-5.83s3.29-4.43 4.98-6.76c1.69-2.33 3.34-4.67 4.95-7 1.61-2.33 3.04-4.5 4.29-6.49 1.25-1.99 2.25-3.74 3.02-5.25.76-1.51 1.15-2.61 1.15-3.29 0-1.05-.3-1.73-.91-2.05-.6-.32-1.39-.48-2.35-.48-1.09 0-2.29.17-3.59.51-1.29.34-2.63.77-4 1.27s-2.69 1.06-3.96 1.66c-1.27.6-2.41 1.17-3.41 1.69-1.01.52-1.81.98-2.42 1.36-.6.38-.91.59-.91.63 0 .2.01.48.03.85.02.36-.07.64-.27.85-.08.12-.45.42-1.12.9-.66.48-1.39 1-2.18 1.54-.78.54-1.54 1.04-2.27 1.48-.73.44-1.17.66-1.33.66-.2 0-.42-.09-.67-.27-.24-.18-.48-.4-.72-.66s-.44-.52-.6-.79c-.16-.26-.24-.49-.24-.69 0-.24.43-.73 1.3-1.45.87-.72 2.02-1.56 3.47-2.5 1.45-.95 3.1-1.95 4.95-3.02s3.77-2.03 5.74-2.9c1.97-.87 3.94-1.59 5.89-2.17 1.95-.58 3.73-.88 5.34-.88 2.18 0 3.74.6 4.68 1.81.95 1.21 1.42 2.78 1.42 4.71 0 1.09-.22 2.28-.67 3.56-.44 1.29-1.02 2.62-1.72 3.98-.7 1.37-1.51 2.75-2.42 4.14-.91 1.39-1.82 2.74-2.75 4.04-.93 1.31-1.83 2.54-2.72 3.68-.89 1.15-1.65 2.14-2.3 2.99.52.12 1.19.18 1.99.18 3.06 0 6.03-.43 8.91-1.3 2.88-.86 5.57-2.04 8.06-3.53 2.5-1.49 4.78-3.2 6.86-5.13 2.07-1.93 3.85-3.96 5.32-6.1 1.47-2.13 2.62-4.3 3.44-6.49.83-2.19 1.24-4.3 1.24-6.31.2 0 .44.08.73.24.28.16.55.38.81.66s.48.59.67.94c.22.35.31.7.31 1.07"/>
</svg>
